<svg width="280" height="269" viewBox="0 0 280 269" fill="none" xmlns="http://www.w3.org/2000/svg">
<path d="M88.8021 240.735C99.7881 240.735 108.694 231.829 108.694 220.843C108.694 209.857 99.7881 200.952 88.8021 200.952C77.8161 200.952 68.9102 209.857 68.9102 220.843C68.9102 231.829 77.8161 240.735 88.8021 240.735Z" fill="#F7B7F5" stroke="black" stroke-width="1.68981" stroke-miterlimit="1.5" stroke-linecap="round" stroke-linejoin="round"/>
<path d="M34.7242 174.527C45.7102 174.527 54.6161 165.621 54.6161 154.635C54.6161 143.649 45.7102 134.743 34.7242 134.743C23.7382 134.743 14.8323 143.649 14.8323 154.635C14.8323 165.621 23.7382 174.527 34.7242 174.527Z" fill="#F7B7F5" stroke="black" stroke-width="1.68981" stroke-miterlimit="1.5" stroke-linecap="round" stroke-linejoin="round"/>
<path d="M99.1234 186.667C110.109 186.667 119.015 177.761 119.015 166.775C119.015 155.789 110.109 146.884 99.1234 146.884C88.1374 146.884 79.2314 155.789 79.2314 166.775C79.2314 177.761 88.1374 186.667 99.1234 186.667Z" fill="#F7B7F5" stroke="black" stroke-width="1.68981" stroke-miterlimit="1.5" stroke-linecap="round" stroke-linejoin="round"/>
<path d="M164.088 182.825C175.074 182.825 183.98 173.919 183.98 162.933C183.98 151.947 175.074 143.041 164.088 143.041C153.102 143.041 144.196 151.947 144.196 162.933C144.196 173.919 153.102 182.825 164.088 182.825Z" fill="#F7B7F5" stroke="black" stroke-width="1.68981" stroke-miterlimit="1.5" stroke-linecap="round" stroke-linejoin="round"/>
<path d="M212.419 118.799C223.405 118.799 232.311 109.893 232.311 98.9071C232.311 87.9211 223.405 79.0152 212.419 79.0152C201.433 79.0152 192.527 87.9211 192.527 98.9071C192.527 109.893 201.433 118.799 212.419 118.799Z" fill="#F7B7F5" stroke="black" stroke-width="1.68981" stroke-miterlimit="1.5" stroke-linecap="round" stroke-linejoin="round"/>
<path d="M76.9764 134.454C87.9624 134.454 96.8683 125.548 96.8683 114.562C96.8683 103.576 87.9624 94.6704 76.9764 94.6704C65.9904 94.6704 57.0845 103.576 57.0845 114.562C57.0845 125.548 65.9904 134.454 76.9764 134.454Z" fill="#F7B7F5" stroke="black" stroke-width="1.68981" stroke-miterlimit="1.5" stroke-linecap="round" stroke-linejoin="round"/>
<path d="M124.164 57.5876C135.15 57.5876 144.056 48.6817 144.056 37.6957C144.056 26.7097 135.15 17.8038 124.164 17.8038C113.178 17.8038 104.272 26.7097 104.272 37.6957C104.272 48.6817 113.178 57.5876 124.164 57.5876Z" fill="#F7B7F5" stroke="black" stroke-width="1.68981" stroke-miterlimit="1.5" stroke-linecap="round" stroke-linejoin="round"/>
<path d="M71.0938 73.4722C82.0799 73.4722 90.9858 64.5663 90.9858 53.5803C90.9858 42.5943 82.0799 33.6884 71.0938 33.6884C60.1078 33.6884 51.2019 42.5943 51.2019 53.5803C51.2019 64.5663 60.1078 73.4722 71.0938 73.4722Z" fill="#F7B7F5" stroke="black" stroke-width="1.68981" stroke-miterlimit="1.5" stroke-linecap="round" stroke-linejoin="round"/>
<path d="M233.201 215.114C244.187 215.114 253.093 206.209 253.093 195.223C253.093 184.237 244.187 175.331 233.201 175.331C222.215 175.331 213.309 184.237 213.309 195.223C213.309 206.209 222.215 215.114 233.201 215.114Z" fill="#F7B7F5" stroke="black" stroke-width="1.68981" stroke-miterlimit="1.5" stroke-linecap="round" stroke-linejoin="round"/>
</svg>
