<svg width="223" height="328" viewBox="0 0 223 328" fill="none" xmlns="http://www.w3.org/2000/svg">
<g clip-path="url(#clip0_29_122)">
<path fill-rule="evenodd" clip-rule="evenodd" d="M120.857 73.4495C119.947 74.026 119.121 74.5865 118.335 75.1231C114.409 77.6661 112.012 79.5541 111.434 80.0105C113.17 30.3086 147.264 18.6411 147.594 18.3538C158.463 14.257 167.886 15.6689 171.936 20.4466C178.259 27.9966 168.382 39.3206 159.538 34.9854C150.735 30.6503 154.372 25.0272 154.372 25.0272C154.372 25.0272 126.229 33.0291 120.857 73.4495Z" fill="#F7B7F5" stroke="black" stroke-width="1.10112" stroke-miterlimit="4.79651" stroke-linecap="round" stroke-linejoin="round"/>
<path fill-rule="evenodd" clip-rule="evenodd" d="M108.376 78.0826C107.839 77.6483 107.219 77.1686 106.517 76.6535C105.194 75.6721 103.582 74.561 101.722 73.3834C96.226 33.3691 68.2896 25.429 68.2896 25.429C68.2896 25.429 71.9263 31.0523 63.1238 35.3875C54.28 39.7227 44.403 28.3987 50.7259 20.8487C54.7759 16.0709 64.1982 14.6591 75.0257 18.7556C75.3977 19.0422 109.285 30.6545 111.228 80.0553C110.277 79.3791 109.327 78.7217 108.376 78.0826Z" fill="#F7B7F5" stroke="black" stroke-width="1.10112" stroke-miterlimit="4.79651" stroke-linecap="round" stroke-linejoin="round"/>
<path fill-rule="evenodd" clip-rule="evenodd" d="M120.857 220.816C119.947 221.393 119.121 221.953 118.335 222.49C114.409 225.033 112.012 226.921 111.434 227.377C113.17 177.675 147.264 166.008 147.594 165.72C158.463 161.624 167.886 163.035 171.936 167.813C178.259 175.363 168.382 186.687 159.538 182.352C150.735 178.017 154.372 172.394 154.372 172.394C154.372 172.394 126.229 180.396 120.857 220.816Z" fill="#F7B7F5" stroke="black" stroke-width="1.10112" stroke-miterlimit="4.79651" stroke-linecap="round" stroke-linejoin="round"/>
<path fill-rule="evenodd" clip-rule="evenodd" d="M108.376 225.449C107.839 225.015 107.219 224.535 106.517 224.02C105.194 223.039 103.582 221.928 101.722 220.75C96.226 180.736 68.2896 172.795 68.2896 172.795C68.2896 172.795 71.9263 178.419 63.1238 182.754C54.28 187.089 44.403 175.765 50.7259 168.215C54.7759 163.437 64.1982 162.026 75.0257 166.122C75.3977 166.409 109.285 178.021 111.228 227.422C110.277 226.746 109.327 226.088 108.376 225.449Z" fill="#F7B7F5" stroke="black" stroke-width="1.10112" stroke-miterlimit="4.79651" stroke-linecap="round" stroke-linejoin="round"/>
<path fill-rule="evenodd" clip-rule="evenodd" d="M120.881 79.3133C120.881 79.3133 123.822 85.8387 122.79 92.1113C122.79 92.1113 149.566 100.475 156.633 101.301C163.753 102.128 184.802 105.34 193.159 92.2204C193.159 92.2204 172.833 100.509 155.086 89.5353C137.339 78.5616 125.111 78.2883 120.881 79.3133Z" fill="#FF2B2B" stroke="black" stroke-width="1.0984" stroke-miterlimit="4.79651" stroke-linecap="round" stroke-linejoin="round"/>
<path fill-rule="evenodd" clip-rule="evenodd" d="M189.066 91.6275C189.066 91.6275 203.288 88.8908 201.14 70.4791C198.786 50.3323 177.247 48.9704 176.94 48.8329C176.94 48.8329 200.833 66.2951 189.066 91.6275Z" fill="#FF2B2B" stroke="black" stroke-width="1.10547" stroke-miterlimit="4.79651" stroke-linecap="round" stroke-linejoin="round"/>
<path fill-rule="evenodd" clip-rule="evenodd" d="M116.671 74.3749L119.639 77.6947C119.639 77.6947 127.262 76.1757 132.122 77.7929C132.122 77.7929 160.364 38.822 184.41 48.1915C184.41 48.1915 166.145 14.3013 116.671 74.3749Z" fill="#FF2B2B" stroke="black" stroke-width="1.10547" stroke-miterlimit="4.79651" stroke-linecap="round" stroke-linejoin="round"/>
<path fill-rule="evenodd" clip-rule="evenodd" d="M122.68 97.2347C122.68 97.2347 144.321 111.495 160.335 149.517C160.335 149.517 161.768 124.787 146.624 107.233C143.963 104.162 133.987 91.6431 122.68 97.2347Z" fill="#FF2B2B" stroke="black" stroke-width="1.10547" stroke-miterlimit="4.79651" stroke-linecap="round" stroke-linejoin="round"/>
<path fill-rule="evenodd" clip-rule="evenodd" d="M158.778 150.817C158.778 150.817 170.904 163.232 162.257 208.947C153.56 254.668 144.351 283.569 135.141 308.43L135.96 290.417L128.081 298.471C128.081 298.471 163.23 207.381 158.778 150.817Z" fill="#FF2B2B" stroke="black" stroke-width="1.10547" stroke-miterlimit="4.79651" stroke-linecap="round" stroke-linejoin="round"/>
<path fill-rule="evenodd" clip-rule="evenodd" d="M101.239 79.2799C101.239 79.2799 98.298 85.8053 99.3298 92.0779C99.3298 92.0779 72.5541 100.441 65.4862 101.268C58.3668 102.095 37.318 105.306 28.9604 92.187C28.9604 92.187 49.2869 100.476 67.034 89.5019C84.781 78.5282 97.0084 78.2549 101.239 79.2799Z" fill="#FF2B2B" stroke="black" stroke-width="1.0984" stroke-miterlimit="4.79651" stroke-linecap="round" stroke-linejoin="round"/>
<path fill-rule="evenodd" clip-rule="evenodd" d="M33.0535 91.6025C33.0535 91.6025 18.8306 88.8658 20.9794 70.4541C23.3328 50.3074 44.4627 48.9061 44.8208 48.7686C44.8208 48.7686 21.2862 66.2701 33.0535 91.6025Z" fill="#FF2B2B" stroke="black" stroke-width="1.10547" stroke-miterlimit="4.79651" stroke-linecap="round" stroke-linejoin="round"/>
<path fill-rule="evenodd" clip-rule="evenodd" d="M105.448 74.3501L102.481 77.6699C102.481 77.6699 94.8573 76.1508 89.9969 77.7681C89.9969 77.7681 61.7557 38.7971 37.7094 48.1667C37.7094 48.1667 55.9741 14.2764 105.448 74.3501Z" fill="#FF2B2B" stroke="black" stroke-width="1.10547" stroke-miterlimit="4.79651" stroke-linecap="round" stroke-linejoin="round"/>
<path fill-rule="evenodd" clip-rule="evenodd" d="M99.439 97.2019C99.439 97.2019 77.7975 111.462 61.7837 149.484C61.7837 149.484 60.3511 124.754 75.4951 107.2C78.1556 104.129 88.1321 91.6103 99.439 97.2019Z" fill="#FF2B2B" stroke="black" stroke-width="1.10547" stroke-miterlimit="4.79651" stroke-linecap="round" stroke-linejoin="round"/>
<path fill-rule="evenodd" clip-rule="evenodd" d="M63.3412 150.792C63.3412 150.792 51.2158 163.207 59.8623 208.922C68.5599 254.643 77.7691 283.544 86.9783 308.405L86.1594 290.392L94.0386 298.446C94.0386 298.446 58.8901 207.357 63.3412 150.792Z" fill="#FF2B2B" stroke="black" stroke-width="1.10547" stroke-miterlimit="4.79651" stroke-linecap="round" stroke-linejoin="round"/>
<path fill-rule="evenodd" clip-rule="evenodd" d="M108.376 101.575C107.839 102.01 107.219 102.489 106.517 103.004C105.194 103.986 103.582 105.097 101.722 106.274C96.226 146.289 68.2896 154.229 68.2896 154.229C68.2896 154.229 71.9263 148.606 63.1238 144.27C54.28 139.935 44.403 151.259 50.7259 158.809C54.7759 163.587 64.1982 164.999 75.0257 160.902C75.3977 160.616 109.285 149.003 111.228 99.6026C110.277 100.279 109.327 100.936 108.376 101.575Z" fill="#F7B7F5" stroke="black" stroke-width="1.10112" stroke-miterlimit="4.79651" stroke-linecap="round" stroke-linejoin="round"/>
<path fill-rule="evenodd" clip-rule="evenodd" d="M120.857 106.208C119.947 105.632 119.121 105.071 118.335 104.535C114.409 101.992 112.012 100.104 111.434 99.6474C113.17 149.349 147.264 161.017 147.594 161.304C158.463 165.401 167.886 163.989 171.936 159.211C178.259 151.661 168.382 140.337 159.538 144.672C150.735 149.008 154.372 154.631 154.372 154.631C154.372 154.631 126.229 146.629 120.857 106.208Z" fill="#F7B7F5" stroke="black" stroke-width="1.10112" stroke-miterlimit="4.79651" stroke-linecap="round" stroke-linejoin="round"/>
<path d="M111.27 102.046C116.832 102.046 121.342 95.8619 121.342 88.2335C121.342 80.605 116.832 74.421 111.27 74.421C105.707 74.421 101.198 80.605 101.198 88.2335C101.198 95.8619 105.707 102.046 111.27 102.046Z" fill="#FF2B2B" stroke="black" stroke-width="1.06758" stroke-miterlimit="4.79651" stroke-linecap="round" stroke-linejoin="round"/>
</g>
<defs>
<clipPath id="clip0_29_122">
<rect width="222.652" height="328" fill="white"/>
</clipPath>
</defs>
</svg>
