<svg width="160" height="111" viewBox="0 0 160 111" fill="none" xmlns="http://www.w3.org/2000/svg">
<path fill-rule="evenodd" clip-rule="evenodd" d="M21.9895 63.6933C21.9895 63.6933 13.4638 56.054 13.2928 46.7783C13.1219 37.5025 15.501 33.663 19.3813 29.2404C19.3813 29.2404 28.6926 18.0525 47.8088 15.4311C66.9241 12.8097 78.864 30.4738 78.864 30.4738C78.864 30.4738 90.8465 12.8097 109.962 15.4311C129.078 18.0525 138.389 29.2404 138.389 29.2404C142.27 33.663 144.649 37.5025 144.478 46.7783C144.307 56.054 135.782 63.6933 135.782 63.6933C135.782 63.6933 129.116 71.2238 117.814 75.4012C106.511 79.5796 90.5474 84.6881 82.2262 97.8746L78.8853 97.8756L75.5455 97.8746C67.2243 84.6881 51.2597 79.5796 39.9578 75.4012C29.0264 71.3612 22.4321 64.1838 22.0108 63.7167L21.9895 63.6933ZM78.8853 53.3074C78.8578 53.2728 78.8721 53.2911 78.8853 53.3074V53.3074ZM78.8853 53.3074L78.7377 53.4855C78.6075 53.6401 78.46 53.808 78.2941 53.9871C76.1265 56.3226 70.8246 60.4878 60.6412 60.4003C46.5093 60.2781 46.5541 49.4627 46.489 47.5211C46.4238 45.5805 47.299 36.8736 55.0167 36.9439C55.0167 36.9439 60.0673 37.0304 58.5693 41.9588C57.0724 46.8871 59.1667 49.8952 64.0238 49.4699C68.882 49.0435 71.7314 46.0171 71.42 39.316C71.1096 32.6138 61.9824 24.6153 52.5622 25.1851C43.143 25.754 28.3212 26.3971 27.8419 46.2155C27.8419 46.2155 27.4735 58.2917 40.5969 65.293C53.7203 72.2954 54.3349 71.4314 60.9241 74.3123C67.4542 77.1668 71.1198 78.4388 78.8751 86.9513H78.8965C86.657 78.4296 90.3143 77.1678 96.8465 74.3123C103.436 71.4314 104.05 72.2954 117.174 65.293C130.297 58.2917 129.929 46.2155 129.929 46.2155C129.449 26.3971 114.628 25.754 105.208 25.1851C95.7882 24.6153 86.6621 32.6138 86.3507 39.316C86.0403 46.0171 88.8897 49.0435 93.7468 49.4699C98.604 49.8952 100.698 46.8871 99.2013 41.9588C97.7034 37.0304 102.754 36.9439 102.754 36.9439C110.473 36.8736 111.347 45.5805 111.282 47.5211C111.216 49.4627 111.261 60.2781 97.1294 60.4003C86.946 60.4878 81.6451 56.3226 79.4766 53.9871C79.3107 53.808 79.1632 53.6401 79.0329 53.4855L78.8853 53.3074Z" fill="#EBEBEB"/>
<path d="M78.8853 53.3074C78.8579 53.2728 78.8721 53.2911 78.8853 53.3074ZM78.8853 53.3074L78.7377 53.4855C78.6075 53.6401 78.46 53.808 78.2941 53.9871C76.1265 56.3226 70.8246 60.4878 60.6412 60.4003C46.5093 60.2781 46.5541 49.4627 46.489 47.5211C46.4238 45.5805 47.299 36.8736 55.0167 36.9439C55.0167 36.9439 60.0673 37.0304 58.5693 41.9588C57.0724 46.8871 59.1667 49.8952 64.0238 49.4699C68.882 49.0435 71.7314 46.0171 71.42 39.316C71.1096 32.6138 61.9824 24.6153 52.5622 25.1851C43.143 25.754 28.3212 26.3971 27.8419 46.2155C27.8419 46.2155 27.4735 58.2917 40.5969 65.293C53.7203 72.2954 54.3349 71.4314 60.9241 74.3123C67.4542 77.1668 71.1198 78.4388 78.8751 86.9513H78.8965C86.657 78.4296 90.3143 77.1678 96.8465 74.3123C103.436 71.4314 104.05 72.2954 117.174 65.293C130.297 58.2917 129.929 46.2155 129.929 46.2155C129.449 26.3971 114.628 25.754 105.208 25.1851C95.7882 24.6153 86.6621 32.6138 86.3507 39.316C86.0403 46.0171 88.8897 49.0435 93.7468 49.4699C98.604 49.8952 100.698 46.8871 99.2013 41.9588C97.7034 37.0304 102.754 36.9439 102.754 36.9439C110.473 36.8736 111.347 45.5805 111.282 47.5211C111.216 49.4627 111.261 60.2781 97.1294 60.4003C86.946 60.4878 81.6451 56.3226 79.4766 53.9871C79.3107 53.808 79.1632 53.6401 79.0329 53.4855L78.8853 53.3074ZM21.9895 63.6933C21.9895 63.6933 13.4638 56.054 13.2928 46.7783C13.1219 37.5025 15.501 33.663 19.3813 29.2404C19.3813 29.2404 28.6926 18.0525 47.8088 15.4311C66.9241 12.8097 78.864 30.4738 78.864 30.4738C78.864 30.4738 90.8465 12.8097 109.962 15.4311C129.078 18.0525 138.389 29.2404 138.389 29.2404C142.27 33.663 144.649 37.5025 144.478 46.7783C144.307 56.054 135.782 63.6933 135.782 63.6933C135.782 63.6933 129.116 71.2238 117.814 75.4012C106.511 79.5796 90.5474 84.6881 82.2262 97.8746L78.8853 97.8756L75.5455 97.8746C67.2243 84.6881 51.2597 79.5796 39.9578 75.4012C29.0264 71.3612 22.4321 64.1838 22.0108 63.7167L21.9895 63.6933Z" stroke="black" stroke-width="1.38398" stroke-miterlimit="1.5" stroke-linecap="round" stroke-linejoin="round"/>
</svg>
