<svg width="169" height="180" viewBox="0 0 169 180" fill="none" xmlns="http://www.w3.org/2000/svg">
<path fill-rule="evenodd" clip-rule="evenodd" d="M90.6521 153.055C90.6521 153.055 92.533 87.335 94.0928 76.6299C94.0928 76.6299 93.91 82.4948 104.691 88.6386C104.691 88.6386 104.369 104.323 114.37 118.472C114.37 118.472 115.058 112.376 109.966 93.2003C109.966 93.2003 121.389 97.9478 128.499 90.8731C128.499 90.8731 138.133 104.696 139.968 112.003C141.849 119.311 139.189 126.199 135.014 130.341C130.885 134.53 101.846 149.844 94.0928 158.78C94.0928 158.78 90.2851 163.388 90.6521 153.055Z" fill="#F7B7F5" stroke="black" stroke-width="1.4205" stroke-miterlimit="4.79651" stroke-linecap="round" stroke-linejoin="round"/>
<path fill-rule="evenodd" clip-rule="evenodd" d="M94.093 71.7021C94.093 71.7021 105.975 94.4152 120.013 92.0415C134.05 89.6677 142.721 78.1255 142.813 77.8928C142.813 77.8928 119.646 94.7414 94.093 71.7021Z" fill="#F7B7F5" stroke="black" stroke-width="1.4205" stroke-miterlimit="4.79651" stroke-linecap="round" stroke-linejoin="round"/>
<path fill-rule="evenodd" clip-rule="evenodd" d="M75.3766 74.9619L75.2843 63.0477C75.2843 63.0477 74.1835 56.0657 82.5787 56.6243C90.928 57.2293 90.2397 60.719 90.4232 64.8149C90.6525 68.9108 90.6525 75.0546 90.6525 75.0546C90.6525 75.0546 90.7907 80.1286 84.3223 80.2217C77.8539 80.3148 75.5601 79.4301 75.3766 74.9619Z" fill="#F7B7F5" stroke="black" stroke-width="1.4205" stroke-miterlimit="4.79651" stroke-linecap="round" stroke-linejoin="round"/>
<path fill-rule="evenodd" clip-rule="evenodd" d="M93.268 60.5782C93.268 60.5782 89.6437 59.275 94.2312 47.7786C98.8187 36.2357 102.718 24.0411 107.122 22.4121C111.572 20.7831 116.114 28.6479 113.499 31.5336C110.838 34.4659 115.288 34.3266 117.995 34.4663C120.656 34.6525 132.445 36.6546 144.556 73.3778C144.556 73.3778 131.023 67.2809 122.949 74.4487C114.921 81.6164 95.1944 68.6303 94.5063 67.5598C94.5063 67.5598 96.7083 61.3698 104.14 60.4855C111.618 59.5546 111.526 56.9001 111.526 56.9001C111.526 56.9001 97.9931 53.1777 93.268 60.5782Z" fill="#F7B7F5" stroke="black" stroke-width="1.4205" stroke-miterlimit="4.79651" stroke-linecap="round" stroke-linejoin="round"/>
<path fill-rule="evenodd" clip-rule="evenodd" d="M75.0083 153.055C75.0083 153.055 73.1274 87.335 71.5676 76.6299C71.5676 76.6299 71.7504 82.4948 60.9698 88.6386C60.9698 88.6386 61.2911 104.323 51.2903 118.472C51.2903 118.472 50.602 112.376 55.6941 93.2003C55.6941 93.2003 44.2719 97.9478 37.1612 90.8731C37.1612 90.8731 27.5275 104.696 25.6924 112.003C23.8116 119.311 26.4718 126.199 30.6464 130.341C34.7752 134.53 63.8147 149.844 71.5676 158.78C71.5676 158.78 75.3753 163.388 75.0083 153.055Z" fill="#F7B7F5" stroke="black" stroke-width="1.4205" stroke-miterlimit="4.79651" stroke-linecap="round" stroke-linejoin="round"/>
<path fill-rule="evenodd" clip-rule="evenodd" d="M71.5669 71.7021C71.5669 71.7021 59.6852 94.4152 45.6474 92.0415C31.6096 89.6677 22.9387 78.1255 22.8469 77.8928C22.8469 77.8928 46.0144 94.7414 71.5669 71.7021Z" fill="#F7B7F5" stroke="black" stroke-width="1.4205" stroke-miterlimit="4.79651" stroke-linecap="round" stroke-linejoin="round"/>
<path fill-rule="evenodd" clip-rule="evenodd" d="M72.3924 60.5782C72.3924 60.5782 76.0167 59.275 71.4292 47.7786C66.8417 36.2357 62.9425 24.0411 58.5385 22.4121C54.0886 20.7831 49.5467 28.6479 52.1616 31.5336C54.8224 34.4659 50.3721 34.3266 47.6655 34.4663C45.0047 34.6525 33.2155 36.6546 21.1045 73.3778C21.1045 73.3778 34.6375 67.2809 42.7115 74.4487C50.7397 81.6164 70.466 68.6303 71.1541 67.5598C71.1541 67.5598 68.9521 61.3698 61.5203 60.4855C54.0427 59.5546 54.1346 56.9001 54.1346 56.9001C54.1346 56.9001 67.6673 53.1777 72.3924 60.5782Z" fill="#F7B7F5" stroke="black" stroke-width="1.4205" stroke-miterlimit="4.79651" stroke-linecap="round" stroke-linejoin="round"/>
</svg>
