<svg width="182" height="195" viewBox="0 0 182 195" fill="none" xmlns="http://www.w3.org/2000/svg">
<path fill-rule="evenodd" clip-rule="evenodd" d="M97.004 160.29C96.0324 160.906 95.1488 161.505 94.3097 162.079C90.1141 164.796 87.5525 166.814 86.9342 167.302C88.7891 114.187 125.225 101.718 125.578 101.411C137.193 97.0331 147.263 98.5419 151.591 103.648C158.348 111.716 147.793 123.818 138.341 119.185C128.935 114.552 132.821 108.543 132.821 108.543C132.821 108.543 102.745 117.094 97.004 160.29Z" fill="#F8BCF0" stroke="black" stroke-width="1.61946" stroke-miterlimit="4.79651" stroke-linecap="round" stroke-linejoin="round"/>
<path fill-rule="evenodd" clip-rule="evenodd" d="M83.6661 165.241C83.092 164.777 82.4296 164.264 81.6788 163.714C80.2655 162.665 78.5428 161.478 76.5555 160.219C70.6816 117.457 40.8269 108.972 40.8269 108.972C40.8269 108.972 44.7134 114.982 35.3064 119.614C25.8553 124.247 15.3 112.146 22.0571 104.077C26.3852 98.9714 36.4546 97.4627 48.0256 101.84C48.4231 102.147 84.6375 114.556 86.7132 167.349C85.6974 166.627 84.6819 165.924 83.6661 165.241Z" fill="#F8BCF0" stroke="black" stroke-width="1.61946" stroke-miterlimit="4.79651" stroke-linecap="round" stroke-linejoin="round"/>
<path fill-rule="evenodd" clip-rule="evenodd" d="M97.004 37.8131C96.0324 37.197 95.1488 36.598 94.3097 36.0246C90.1141 33.3069 87.5525 31.2893 86.9342 30.8017C88.7891 83.9163 125.225 96.385 125.578 96.692C137.193 101.07 147.263 99.5613 151.591 94.4555C158.348 86.3871 147.793 74.2855 138.341 78.9183C128.935 83.5512 132.821 89.5603 132.821 89.5603C132.821 89.5603 102.745 81.009 97.004 37.8131Z" fill="#F8BCF0" stroke="black" stroke-width="1.61946" stroke-miterlimit="4.79651" stroke-linecap="round" stroke-linejoin="round"/>
<path fill-rule="evenodd" clip-rule="evenodd" d="M83.6661 32.862C83.092 33.3261 82.4296 33.8387 81.6788 34.3892C80.2655 35.4379 78.5428 36.6253 76.5555 37.8838C70.6816 80.6457 40.8269 89.1311 40.8269 89.1311C40.8269 89.1311 44.7134 83.1216 35.3064 78.4887C25.8553 73.8559 15.3 85.9575 22.0571 94.0259C26.3852 99.1317 36.4546 100.64 48.0256 96.2627C48.4231 95.9564 84.6375 83.5468 86.7132 30.7538C85.6974 31.4765 84.6819 32.179 83.6661 32.862Z" fill="#F8BCF0" stroke="black" stroke-width="1.61946" stroke-miterlimit="4.79651" stroke-linecap="round" stroke-linejoin="round"/>
</svg>
