<svg width="313" height="455" viewBox="0 0 313 455" fill="none" xmlns="http://www.w3.org/2000/svg">
<g clip-path="url(#clip0_29_254)">
<path fill-rule="evenodd" clip-rule="evenodd" d="M180.149 86.8817C180.149 86.8817 184.506 96.5501 182.978 105.844C182.978 105.844 222.65 118.236 233.122 119.461C243.671 120.686 274.858 125.444 287.241 106.006C287.241 106.006 257.124 118.286 230.829 102.027C204.534 85.768 186.417 85.363 180.149 86.8817Z" fill="#EBEBEB" stroke="black" stroke-width="1.63624" stroke-miterlimit="4.79651" stroke-linecap="round" stroke-linejoin="round"/>
<path fill-rule="evenodd" clip-rule="evenodd" d="M281.177 105.127C281.177 105.127 302.251 101.073 299.067 73.7927C295.58 43.942 263.666 41.9241 263.211 41.7204C263.211 41.7204 298.612 67.5934 281.177 105.127Z" fill="#EBEBEB" stroke="black" stroke-width="1.63793" stroke-miterlimit="4.79651" stroke-linecap="round" stroke-linejoin="round"/>
<path fill-rule="evenodd" clip-rule="evenodd" d="M173.913 79.5649L178.31 84.4837C178.31 84.4837 189.605 82.2329 196.807 84.6291C196.807 84.6291 238.65 26.8875 274.278 40.7699C274.278 40.7699 247.217 -9.44386 173.913 79.5649Z" fill="#EBEBEB" stroke="black" stroke-width="1.63793" stroke-miterlimit="4.79651" stroke-linecap="round" stroke-linejoin="round"/>
<path fill-rule="evenodd" clip-rule="evenodd" d="M182.816 113.436C182.816 113.436 214.881 134.565 238.608 190.9C238.608 190.9 240.731 154.259 218.292 128.25C214.351 123.7 199.569 105.151 182.816 113.436Z" fill="#EBEBEB" stroke="black" stroke-width="1.63793" stroke-miterlimit="4.79651" stroke-linecap="round" stroke-linejoin="round"/>
<path fill-rule="evenodd" clip-rule="evenodd" d="M236.301 192.827C236.301 192.827 254.266 211.22 241.455 278.954C228.568 346.698 214.923 389.519 201.279 426.355L202.492 399.666L190.818 411.599C190.818 411.599 242.896 276.636 236.301 192.827Z" fill="#EBEBEB" stroke="black" stroke-width="1.63793" stroke-miterlimit="4.79651" stroke-linecap="round" stroke-linejoin="round"/>
<path fill-rule="evenodd" clip-rule="evenodd" d="M151.046 86.8453C151.046 86.8453 146.689 96.5137 148.218 105.808C148.218 105.808 108.545 118.199 98.0733 119.424C87.5247 120.649 56.3377 125.407 43.9546 105.969C43.9546 105.969 74.0714 118.25 100.366 101.991C126.661 85.7316 144.778 85.3267 151.046 86.8453Z" fill="#EBEBEB" stroke="black" stroke-width="1.63624" stroke-miterlimit="4.79651" stroke-linecap="round" stroke-linejoin="round"/>
<path fill-rule="evenodd" clip-rule="evenodd" d="M50.0183 105.09C50.0183 105.09 28.9448 101.035 32.1286 73.7555C35.6157 43.9048 66.9227 41.8286 67.4534 41.6249C67.4534 41.6249 32.5832 67.5562 50.0183 105.09Z" fill="#EBEBEB" stroke="black" stroke-width="1.63793" stroke-miterlimit="4.79651" stroke-linecap="round" stroke-linejoin="round"/>
<path fill-rule="evenodd" clip-rule="evenodd" d="M157.282 79.5274L152.885 84.4463C152.885 84.4463 141.59 82.1955 134.389 84.5917C134.389 84.5917 92.5451 26.85 56.9169 40.7325C56.9169 40.7325 83.9788 -9.48131 157.282 79.5274Z" fill="#EBEBEB" stroke="black" stroke-width="1.63793" stroke-miterlimit="4.79651" stroke-linecap="round" stroke-linejoin="round"/>
<path fill-rule="evenodd" clip-rule="evenodd" d="M148.381 113.399C148.381 113.399 116.316 134.528 92.5892 190.863C92.5892 190.863 90.4665 154.222 112.905 128.213C116.847 123.663 131.628 105.114 148.381 113.399Z" fill="#EBEBEB" stroke="black" stroke-width="1.63793" stroke-miterlimit="4.79651" stroke-linecap="round" stroke-linejoin="round"/>
<path fill-rule="evenodd" clip-rule="evenodd" d="M94.8948 192.79C94.8948 192.79 76.9292 211.184 89.7402 278.918C102.627 346.662 116.272 389.483 129.917 426.318L128.703 399.63L140.378 411.563C140.378 411.563 88.2998 276.599 94.8948 192.79Z" fill="#EBEBEB" stroke="black" stroke-width="1.63793" stroke-miterlimit="4.79651" stroke-linecap="round" stroke-linejoin="round"/>
<path d="M165.909 120.564C174.151 120.564 180.833 111.402 180.833 100.099C180.833 88.796 174.151 79.6333 165.909 79.6333C157.667 79.6333 150.986 88.796 150.986 100.099C150.986 111.402 157.667 120.564 165.909 120.564Z" fill="#EBEBEB" stroke="black" stroke-width="1.59088" stroke-miterlimit="4.79651" stroke-linecap="round" stroke-linejoin="round"/>
</g>
<defs>
<clipPath id="clip0_29_254">
<rect width="312.778" height="455" fill="white"/>
</clipPath>
</defs>
</svg>
